<svg width="62" height="55" viewBox="0 0 62 55" fill="none" xmlns="http://www.w3.org/2000/svg">
<rect width="62" height="55" rx="10" fill="white"/>
<path d="M11.925 24.15L7 10.7H11.475L14.425 19.85L17.35 10.7H21.8L16.875 24.15H11.925ZM23.6012 24.15V10.7H27.9012V24.15H23.6012ZM23.5262 9.2V6H27.9762V9.2H23.5262ZM31.0963 27.9V10.7H35.2713L35.3463 13.525L35.0213 13.4C35.3546 12.4333 35.888 11.6917 36.6213 11.175C37.3713 10.6583 38.2546 10.4 39.2713 10.4C40.488 10.4 41.513 10.7083 42.3463 11.325C43.1796 11.925 43.813 12.7583 44.2463 13.825C44.6796 14.875 44.8963 16.075 44.8963 17.425C44.8963 18.7583 44.6713 19.9583 44.2213 21.025C43.788 22.0917 43.1463 22.9333 42.2963 23.55C41.463 24.15 40.438 24.45 39.2213 24.45C38.5713 24.45 37.963 24.3333 37.3963 24.1C36.8463 23.85 36.363 23.5083 35.9463 23.075C35.5463 22.625 35.2546 22.1 35.0713 21.5L35.3963 21.35V27.9H31.0963ZM37.9213 21.275C38.7046 21.275 39.3213 20.9333 39.7713 20.25C40.238 19.55 40.4713 18.6083 40.4713 17.425C40.4713 16.2417 40.238 15.3083 39.7713 14.625C39.3213 13.925 38.7046 13.575 37.9213 13.575C37.388 13.575 36.9296 13.725 36.5463 14.025C36.1796 14.3083 35.8963 14.7333 35.6963 15.3C35.4963 15.8667 35.3963 16.575 35.3963 17.425C35.3963 18.275 35.4963 18.9833 35.6963 19.55C35.8963 20.1167 36.1796 20.55 36.5463 20.85C36.9296 21.1333 37.388 21.275 37.9213 21.275Z" fill="#E31A26"/>
<path d="M13.725 48.2C12.675 48.2 11.75 48.0417 10.95 47.725C10.15 47.4083 9.49166 46.9583 8.97499 46.375C8.45832 45.8083 8.10832 45.1417 7.92499 44.375L10.675 44.2C10.8583 44.75 11.175 45.1833 11.625 45.5C12.0917 45.8333 12.7917 46 13.725 46C14.825 46 15.6667 45.7667 16.25 45.3C16.85 44.8333 17.15 44.125 17.15 43.175V41.25C16.8333 41.9333 16.325 42.475 15.625 42.875C14.925 43.275 14.1417 43.475 13.275 43.475C12.1583 43.475 11.1667 43.2 10.3 42.65C9.43332 42.1 8.75832 41.3417 8.27499 40.375C7.79166 39.4083 7.54999 38.2917 7.54999 37.025C7.54999 35.7417 7.78332 34.6167 8.24999 33.65C8.73332 32.6833 9.39999 31.925 10.25 31.375C11.1167 30.825 12.0917 30.55 13.175 30.55C14.125 30.55 14.9583 30.7667 15.675 31.2C16.4083 31.6333 16.9333 32.2167 17.25 32.95V30.85H19.8V43.1C19.8 44.2 19.55 45.125 19.05 45.875C18.5667 46.6417 17.8667 47.2167 16.95 47.6C16.05 48 14.975 48.2 13.725 48.2ZM13.7 41.225C14.7333 41.225 15.5583 40.85 16.175 40.1C16.8083 39.35 17.1333 38.3167 17.15 37C17.1667 36.1333 17.0333 35.3917 16.75 34.775C16.4667 34.1417 16.0583 33.6583 15.525 33.325C15.0083 32.975 14.4 32.8 13.7 32.8C12.6167 32.8 11.775 33.1833 11.175 33.95C10.5917 34.7 10.3 35.7167 10.3 37C10.3 38.3 10.6 39.3333 11.2 40.1C11.8167 40.85 12.65 41.225 13.7 41.225ZM23.2432 44.15V30.85H25.8932V44.15H23.2432ZM23.1932 28.925V26.275H25.9432V28.925H23.1932ZM29.8594 47.9V30.85H32.3594L32.4344 33.7L32.1344 33.55C32.4677 32.5667 33.0177 31.825 33.7844 31.325C34.551 30.8083 35.4344 30.55 36.4344 30.55C37.7344 30.55 38.801 30.875 39.6344 31.525C40.4844 32.1583 41.1094 33 41.5094 34.05C41.926 35.1 42.1344 36.25 42.1344 37.5C42.1344 38.75 41.926 39.9 41.5094 40.95C41.1094 42 40.4844 42.85 39.6344 43.5C38.801 44.1333 37.7344 44.45 36.4344 44.45C35.7677 44.45 35.1427 44.3333 34.5594 44.1C33.976 43.8667 33.476 43.5417 33.0594 43.125C32.6594 42.6917 32.376 42.1833 32.2094 41.6L32.5094 41.3V47.9H29.8594ZM35.9594 42.15C37.026 42.15 37.8594 41.7417 38.4594 40.925C39.076 40.1083 39.3844 38.9667 39.3844 37.5C39.3844 36.0333 39.076 34.8917 38.4594 34.075C37.8594 33.2583 37.026 32.85 35.9594 32.85C35.2594 32.85 34.651 33.025 34.1344 33.375C33.6177 33.7083 33.2177 34.225 32.9344 34.925C32.651 35.625 32.5094 36.4833 32.5094 37.5C32.5094 38.5167 32.6427 39.375 32.9094 40.075C33.1927 40.775 33.5927 41.3 34.1094 41.65C34.6427 41.9833 35.2594 42.15 35.9594 42.15ZM49.9502 44.45C48.7002 44.45 47.6419 44.2583 46.7752 43.875C45.9252 43.4917 45.2669 42.9667 44.8002 42.3C44.3335 41.6167 44.0669 40.8333 44.0002 39.95L46.7252 39.825C46.8585 40.5583 47.1752 41.1417 47.6752 41.575C48.1752 42.0083 48.9335 42.225 49.9502 42.225C50.7835 42.225 51.4419 42.0917 51.9252 41.825C52.4085 41.5583 52.6502 41.1333 52.6502 40.55C52.6502 40.2333 52.5669 39.9667 52.4002 39.75C52.2502 39.5167 51.9502 39.325 51.5002 39.175C51.0502 39.0083 50.3835 38.85 49.5002 38.7C48.1835 38.45 47.1502 38.1583 46.4002 37.825C45.6502 37.4917 45.1169 37.0667 44.8002 36.55C44.4835 36.0333 44.3252 35.4083 44.3252 34.675C44.3252 33.4583 44.7752 32.4667 45.6752 31.7C46.5919 30.9333 47.9085 30.55 49.6252 30.55C50.7752 30.55 51.7419 30.75 52.5252 31.15C53.3085 31.5333 53.9169 32.0583 54.3502 32.725C54.8002 33.375 55.0835 34.1083 55.2002 34.925L52.4752 35.075C52.3919 34.6083 52.2252 34.2083 51.9752 33.875C51.7419 33.525 51.4252 33.2583 51.0252 33.075C50.6252 32.875 50.1502 32.775 49.6002 32.775C48.7502 32.775 48.1169 32.9417 47.7002 33.275C47.2835 33.6083 47.0752 34.0417 47.0752 34.575C47.0752 34.975 47.1669 35.3 47.3502 35.55C47.5502 35.8 47.8669 36.0083 48.3002 36.175C48.7335 36.325 49.3085 36.4583 50.0252 36.575C51.4085 36.8083 52.4919 37.1 53.2752 37.45C54.0585 37.7833 54.6085 38.2 54.9252 38.7C55.2419 39.2 55.4002 39.8083 55.4002 40.525C55.4002 41.3583 55.1669 42.0667 54.7002 42.65C54.2335 43.2333 53.5919 43.6833 52.7752 44C51.9585 44.3 51.0169 44.45 49.9502 44.45Z" fill="#373286"/>
</svg>
