<svg width="15" height="12" viewBox="0 0 15 12" fill="none" xmlns="http://www.w3.org/2000/svg">
<path d="M0.0510001 1.1115L6.70725 7.7685C6.90416 7.96555 7.16718 8.08253 7.44539 8.0968C7.7236 8.11108 7.99721 8.02162 8.21325 7.84575L8.29875 7.7685L14.9505 1.116C14.9722 1.1985 14.9865 1.2825 14.994 1.36875L15 1.5V10.5C15.0001 10.8784 14.8572 11.2429 14.5999 11.5204C14.3426 11.7979 13.9899 11.9679 13.6125 11.9963L13.5 12H1.5C1.12157 12.0001 0.757075 11.8572 0.479589 11.5999C0.202103 11.3426 0.0321325 10.9899 0.00375009 10.6125L0 10.5V1.5C0 1.41 0.00749998 1.323 0.0225 1.2375L0.0510001 1.1115ZM13.5 0C13.5907 0 13.68 0.0075001 13.7662 0.0232501L13.8937 0.0525001L7.50375 6.4425L1.1115 0.0509999C1.194 0.0284999 1.2795 0.0134999 1.3665 0.00599992L1.5 0H13.5Z" fill="#09244B"/>
</svg>
